<?xml version="1.0" standalone="no"?>
<!DOCTYPE svg PUBLIC "-//W3C//DTD SVG 20010904//EN"
 "http://www.w3.org/TR/2001/REC-SVG-20010904/DTD/svg10.dtd">
<svg version="1.0" xmlns="http://www.w3.org/2000/svg"
 width="260.000000pt" height="260.000000pt" viewBox="0 0 260.000000 260.000000"
 preserveAspectRatio="xMidYMid meet">
<metadata>
Created by potrace 1.14, written by Peter Selinger 2001-2017
</metadata>
<g transform="translate(0.000000,260.000000) scale(0.100000,-0.100000)"
fill="#000000" stroke="none">
<path d="M0 1728 l0 -872 33 31 c106 99 276 175 446 198 l53 7 -7 -33 c-11
-55 -74 -246 -116 -356 -21 -56 -39 -104 -39 -107 0 -3 65 -6 145 -6 l145 0
16 38 c28 65 90 264 109 350 17 73 21 83 39 80 14 -2 23 -13 26 -33 5 -30 6
-30 80 -36 67 -5 90 -13 221 -77 80 -40 151 -72 158 -72 6 0 11 -4 11 -10 0
-6 -80 -10 -221 -10 l-221 0 6 -27 c3 -16 8 -65 12 -111 l6 -82 544 0 543 0 3
90 3 91 65 23 c36 12 112 47 170 76 138 69 199 90 292 97 l78 6 0 808 0 809
-1300 0 -1300 0 0 -872z m1980 378 l0 -84 -52 -16 c-100 -29 -154 -36 -343
-46 -223 -12 -642 -13 -648 -2 -3 4 -8 44 -12 90 l-7 82 350 0 c355 0 516 11
637 44 79 22 75 25 75 -68z m-1395 29 c50 -15 128 -40 175 -55 l85 -27 3 -93
3 -92 -28 6 c-15 4 -75 22 -133 41 -58 18 -131 41 -162 50 l-58 16 0 96 c0 72
3 94 13 90 6 -2 53 -17 102 -32z m1371 -242 c-9 -28 -45 -163 -58 -215 l-11
-48 -104 0 c-57 0 -103 3 -103 6 0 13 61 257 66 265 3 5 52 9 110 9 96 0 105
-2 100 -17z m-796 -12 c0 -10 11 -63 25 -119 14 -56 25 -108 25 -117 0 -13
-14 -15 -97 -13 l-97 3 -13 45 c-8 25 -24 84 -38 133 l-24 87 110 0 c99 0 109
-2 109 -19z m364 11 c4 -6 11 -52 35 -214 l7 -48 -98 0 c-93 0 -98 1 -102 23
-10 45 -46 203 -52 225 -6 22 -5 22 99 22 58 0 108 -3 111 -8z m-1052 -166
c76 -25 272 -85 301 -92 l27 -6 0 -95 c0 -91 -1 -94 -21 -88 -12 4 -49 15 -83
25 -33 10 -110 33 -171 52 l-110 33 -3 93 c-2 57 1 92 7 92 6 0 30 -6 53 -14z
m1466 -223 l-3 -87 -30 -8 c-54 -16 -199 -38 -250 -38 -94 0 -95 -1 -95 -91
l0 -79 235 0 235 0 0 -90 0 -90 -232 -2 -233 -3 -3 -107 -3 -108 196 0 195 0
0 -90 0 -90 -509 0 c-281 0 -512 3 -515 8 -2 4 -7 44 -11 90 l-8 82 222 0 222
0 -3 108 -3 107 -237 3 -238 2 0 38 c0 20 -3 61 -6 90 l-7 52 247 0 246 0 0
80 0 80 -195 0 c-223 0 -199 -13 -210 111 l-6 67 423 5 c381 5 430 7 493 25
39 11 74 20 78 21 4 0 6 -38 5 -86z m-1138 -238 c0 -3 -7 -46 -16 -96 -21
-123 -65 -293 -109 -419 -20 -58 -39 -113 -42 -122 -5 -16 -19 -18 -119 -18
-63 0 -114 2 -114 4 0 2 13 36 30 75 55 134 127 383 151 517 l11 64 104 0 c57
0 104 -2 104 -5z"/>
</g>
</svg>
